<?xml version="1.0" encoding="UTF-8"?>
<svg id="Livello_2" data-name="Livello 2" xmlns="http://www.w3.org/2000/svg" viewBox="0 0 357.43 43.63">
  <defs>
    <style>
      .cls-1 {
        fill: #cec8c4;
      }
    </style>
  </defs>
  <g id="Livello_1-2" data-name="Livello 1">
    <polygon class="cls-1" points="157 0 164.25 30.01 171.5 0 187 0 187 42.5 177 42.5 177 12 169.03 42.28 158.94 42.21 151.5 12.5 151.5 42.5 141 42.5 141 0 157 0"/>
    <path class="cls-1" d="M257,0v42.5h-10.5v-3c-8.48,8.76-20.38,2.54-21.5-8.75-1.02-10.36,2.25-19.91,11.47-20.54,3.49-.24,6.91,1.08,9.54,3.38l.48.42V0h10.5ZM240.38,18.6c-6.6.96-6.5,14.69-.89,16.17,9.81,2.59,9.97-17.5.89-16.17Z"/>
    <path class="cls-1" d="M203.38,10.13c24.87-3.4,26.66,31.19,4.81,33.31-23.05,2.24-25.72-30.45-4.81-33.31ZM202.15,33.84c1.34,1.21,4.28,1.44,5.99,1.05,7-1.62,5.89-20.26-4.62-16.09-4.45,1.77-4.66,12.06-1.38,15.04Z"/>
    <path class="cls-1" d="M99.5,21c-1.07-13.49,26.01-14.76,27.88-3.63,1.08,6.42-1.4,17.46.98,23.01.35.82,1.63.5,1.14,2.12h-10.5l-.51-3.5c-7.34,9.18-25.17,3.82-19.37-9.12,3.42-7.63,17.22-5.58,18.63-8.37,2.48-4.89-9.06-6.18-8.76-.51h-9.5ZM109.12,35.88c5.99,3.15,9.99-1.92,8.88-7.88-4.1,1.85-12,1.14-8.88,7.88Z"/>
    <path class="cls-1" d="M260.5,21c-1.07-13.49,26.01-14.76,27.88-3.63,1.08,6.42-1.4,17.46.98,23.01.35.82,1.63.5,1.14,2.12h-10.5l-.51-3.5c-7.34,9.18-25.17,3.82-19.37-9.12,3.42-7.63,17.22-5.58,18.63-8.37,2.48-4.89-9.06-6.18-8.76-.51h-9.5ZM270.12,35.88c5.99,3.15,9.99-1.92,8.88-7.88-4.1,1.85-12,1.14-8.88,7.88Z"/>
    <path class="cls-1" d="M323,42.5h-10v-19.75c0-.39-1.27-2.88-1.73-3.27-3.65-3.02-8.77,1.4-8.77,5.27v17.75h-10V11h10l.25,4c4.16-6.27,14.82-6.97,18.86-.35.24.4,1.39,2.93,1.39,3.11v24.75Z"/>
    <path class="cls-1" d="M43.5,11v19.75c0,.42,1.26,2.83,1.74,3.26,3.52,3.23,8.76-1.35,8.76-5.26V11h10v31.5h-10v-4c-4.16,4.34-8.79,6.54-14.76,4.01-2.52-1.07-5.74-4.46-5.74-7.26V11h10Z"/>
    <polygon class="cls-1" points="11 0 11 33 31.5 33 31.5 42.5 0 42.5 0 0 11 0"/>
    <path class="cls-1" d="M97,22h-10.5c-.32,0,.37-4-4.26-3.92-6.82.12-6.76,15.57-1.38,16.81,4.29.99,4.73-1.25,6.4-4.39h9.75c-.85,11.09-11.75,15.5-21.49,11.74-8.56-3.3-9.93-11.07-8.95-19.44,1.99-17.08,28.8-18.19,30.45-.8Z"/>
    <rect class="cls-1" x="326" y="11" width="10" height="31.5"/>
    <path class="cls-1" d="M357.43,7.93c0,3.91-3.07,6.97-7.06,6.97s-7.1-3.07-7.1-6.97,3.15-6.89,7.1-6.89,7.06,3.07,7.06,6.89ZM345.04,7.93c0,3.07,2.27,5.5,5.38,5.5s5.25-2.44,5.25-5.46-2.23-5.54-5.29-5.54-5.33,2.48-5.33,5.5ZM349.28,11.55h-1.6v-6.89c.63-.13,1.51-.21,2.65-.21,1.3,0,1.89.21,2.39.5.38.29.67.84.67,1.51,0,.76-.59,1.34-1.43,1.6v.08c.67.25,1.05.76,1.26,1.68.21,1.05.34,1.47.5,1.72h-1.72c-.21-.25-.34-.88-.55-1.68-.13-.76-.55-1.09-1.43-1.09h-.76v2.77ZM349.33,7.64h.76c.88,0,1.6-.29,1.6-1.01,0-.63-.46-1.05-1.47-1.05-.42,0-.71.04-.88.08v1.97Z"/>
  </g>
</svg>